<svg width="300" height="300" viewBox="0 0 300 300" fill="none" xmlns="http://www.w3.org/2000/svg">
  <rect width="300" height="300" fill="#F2F2F2"/>
  <path d="M150 60C127.909 60 110 77.9086 110 100C110 122.091 127.909 140 150 140C172.091 140 190 122.091 190 100C190 77.9086 172.091 60 150 60ZM150 130C133.458 130 120 116.542 120 100C120 83.4584 133.458 70 150 70C166.542 70 180 83.4584 180 100C180 116.542 166.542 130 150 130Z" fill="#AAAAAA"/>
  <path d="M150 145C112.421 145 80 162.909 80 185V205C80 208.866 83.134 212 87 212H213C216.866 212 220 208.866 220 205V185C220 162.909 187.579 145 150 145ZM210 202H90V185C90 172.337 116.449 155 150 155C183.551 155 210 172.337 210 185V202Z" fill="#AAAAAA"/>
  <path d="M147.5 230C173.181 230 194 223.165 194 214.667C194 206.168 173.181 199.333 147.5 199.333C121.819 199.333 101 206.168 101 214.667C101 223.165 121.819 230 147.5 230Z" fill="#AAAAAA"/>
  <path d="M147.5 230L154.5 238L165 244.5L177 248.5L141.5 246L126.5 237.5L147.5 230Z" fill="#AAAAAA"/>
  <path d="M115 172C120.523 172 125 167.523 125 162C125 156.477 120.523 152 115 152C109.477 152 105 156.477 105 162C105 167.523 109.477 172 115 172Z" fill="#AAAAAA"/>
  <path d="M185 172C190.523 172 195 167.523 195 162C195 156.477 190.523 152 185 152C179.477 152 175 156.477 175 162C175 167.523 179.477 172 185 172Z" fill="#AAAAAA"/>
</svg> 